<mxfile host="app.diagrams.net" modified="2023-06-25T15:14:46.271Z" agent="Mozilla/5.0 (Macintosh; Intel Mac OS X 10_15_7) AppleWebKit/605.1.15 (KHTML, like Gecko) Version/16.1 Safari/605.1.15" version="21.5.0" etag="J6KhOJRjzUBdNnsAB59M" type="github">
  <diagram name="Page-1" id="5oyE8_M96G-j9KmtLL7R">
    <mxGraphModel>
      <root>
        <mxCell id="0" />
        <mxCell id="1" parent="0" />
      </root>
    </mxGraphModel>
  </diagram>
</mxfile>
